<?xml version="1.0" encoding="utf-8"?><!-- Uploaded to: SVG Repo, www.svgrepo.com, Generator: SVG Repo Mixer Tools -->
<svg fill="#000000" width="800px" height="800px" viewBox="0 0 24 24" id="approved-file" data-name="Flat Color" xmlns="http://www.w3.org/2000/svg" class="icon flat-color"><path id="primary" d="M19.71,4.29l-2-2A1,1,0,0,0,17,2H6A2,2,0,0,0,4,4V20a2,2,0,0,0,2,2H18a2,2,0,0,0,2-2V5A1,1,0,0,0,19.71,4.29Z" style="fill: rgb(0, 0, 0);"></path><path id="secondary" d="M11.33,14.33a1,1,0,0,1-.7-.29L9.29,12.71a1,1,0,0,1,1.42-1.42l.62.63,2-2a1,1,0,0,1,1.42,0,1,1,0,0,1,0,1.41L12,14A1,1,0,0,1,11.33,14.33ZM17,4a1,1,0,0,0,1,1h2a1,1,0,0,0-.28-.71l-2-2A1,1,0,0,0,17,2Z" style="fill: rgb(44, 169, 188);"></path></svg>